<svg width="36" height="36" viewBox="0 0 36 36" fill="none" xmlns="http://www.w3.org/2000/svg">
<path d="M27 21L33 27M33 27L27 33M33 27H23.9385C22.9553 26.99 21.9897 26.7385 21.1266 26.2677C20.2634 25.7969 19.5292 25.1212 18.9885 24.3L18.45 23.625M27 3L33 9M33 9L27 15M33 9L24.0405 9C23.0708 8.99338 22.1139 9.22191 21.2518 9.66601C20.3897 10.1101 19.6481 10.7566 19.0905 11.55L10.9095 24.45C10.3519 25.2434 9.61031 25.8899 8.74822 26.334C7.88613 26.7781 6.92924 27.0066 5.9595 27H3M3 9H5.958C7.07619 8.99222 8.1743 9.29707 9.12846 9.88016C10.0826 10.4633 10.8548 11.3014 11.358 12.3" stroke="white" stroke-width="3" stroke-linecap="round" stroke-linejoin="round"/>
</svg>
