<svg width="16" height="17" viewBox="0 0 16 17" fill="none" xmlns="http://www.w3.org/2000/svg">
<path d="M12 5.83325C12 8.24192 9.42067 10.7859 8.40467 11.6966C8.28844 11.7854 8.14625 11.8335 8 11.8335C7.85375 11.8335 7.71156 11.7854 7.59533 11.6966C6.58 10.7859 4 8.24192 4 5.83325C4 4.77239 4.42143 3.75497 5.17157 3.00482C5.92172 2.25468 6.93913 1.83325 8 1.83325C9.06087 1.83325 10.0783 2.25468 10.8284 3.00482C11.5786 3.75497 12 4.77239 12 5.83325Z" stroke="#5C5F70" stroke-width="1.33333" stroke-linecap="round" stroke-linejoin="round"/>
<path d="M7.99984 7.16667C8.73622 7.16667 9.33317 6.56971 9.33317 5.83333C9.33317 5.09695 8.73622 4.5 7.99984 4.5C7.26346 4.5 6.6665 5.09695 6.6665 5.83333C6.6665 6.56971 7.26346 7.16667 7.99984 7.16667Z" stroke="#5C5F70" stroke-width="1.33333" stroke-linecap="round" stroke-linejoin="round"/>
<path d="M5.80921 9.83325H3.33588C3.1961 9.83331 3.05987 9.87731 2.94646 9.95901C2.83305 10.0407 2.74819 10.156 2.70388 10.2886L1.36788 14.2886C1.33439 14.3888 1.32519 14.4955 1.34105 14.6C1.35691 14.7044 1.39737 14.8036 1.45909 14.8894C1.52082 14.9751 1.60204 15.045 1.69607 15.0932C1.79009 15.1414 1.89422 15.1665 1.99988 15.1666H13.9999C14.1055 15.1665 14.2095 15.1414 14.3035 15.0932C14.3974 15.045 14.4786 14.9753 14.5403 14.8896C14.602 14.8039 14.6425 14.7048 14.6584 14.6005C14.6743 14.4961 14.6652 14.3894 14.6319 14.2893L13.2985 10.2893C13.2543 10.1564 13.1694 10.0409 13.0558 9.95909C12.9423 9.87724 12.8059 9.83322 12.6659 9.83325H10.1912" stroke="#5C5F70" stroke-width="1.33333" stroke-linecap="round" stroke-linejoin="round"/>
</svg>
