<svg width="46" height="76" viewBox="0 0 46 76" fill="none" xmlns="http://www.w3.org/2000/svg">
<path d="M22.9997 22.8473C11.3729 22.8473 1.9466 33.386 1.9466 45.225C1.9466 57.0641 8.66513 69.7408 19.15 74.643C20.3553 75.2074 21.6695 75.5 23.0005 75.5C24.3316 75.5 25.6458 75.2074 26.851 74.643C37.3359 69.7408 44.0545 56.9719 44.0545 45.225C44.0545 33.4782 34.6281 22.8473 23.0005 22.8473H22.9997ZM28.4858 49.3969C27.0305 50.8527 25.0576 51.6704 22.9997 51.6704C20.9419 51.6704 18.9689 50.8527 17.5137 49.3969C16.0584 47.9411 15.241 45.9674 15.241 43.9087C15.241 41.85 16.0584 39.8763 17.5137 38.4205C18.9689 36.9646 20.9419 36.1469 22.9997 36.1469C25.0576 36.1469 27.0305 36.9646 28.4858 38.4205C29.941 39.8763 30.7584 41.85 30.7584 43.9087C30.7584 45.9674 29.941 47.9411 28.4858 49.3969Z" fill="url(#paint0_linear_296_40021)"/>
<path d="M43.209 13.9953C38.6573 11.1053 33.8685 9.24138 29.0099 8.39963V6.51251C29.0099 3.192 26.3189 0.5 22.9997 0.5C19.6805 0.5 16.9896 3.192 16.9896 6.51251V8.39963C12.1318 9.24138 7.3421 11.1053 2.79042 13.9953C-0.0119085 15.775 -0.842109 19.4899 0.936091 22.2933C2.71509 25.0968 6.42856 25.9273 9.23089 24.1484C18.1099 18.5119 27.8888 18.5119 36.7678 24.1484C37.7662 24.7825 38.8809 25.0855 39.9828 25.0855C41.9717 25.0855 43.9182 24.0987 45.0634 22.2941C46.8424 19.4907 46.0122 15.775 43.209 13.9961V13.9953Z" fill="url(#paint1_linear_296_40021)"/>
<defs>
<linearGradient id="paint0_linear_296_40021" x1="23" y1="0.5" x2="23" y2="75.5" gradientUnits="userSpaceOnUse">
<stop stop-color="#193BE6"/>
<stop offset="1" stop-color="#0F248A"/>
</linearGradient>
<linearGradient id="paint1_linear_296_40021" x1="23" y1="0.5" x2="23" y2="75.5" gradientUnits="userSpaceOnUse">
<stop stop-color="#193BE6"/>
<stop offset="1" stop-color="#0F248A"/>
</linearGradient>
</defs>
</svg>
